<?xml version="1.0" standalone="no"?>
<!DOCTYPE svg PUBLIC "-//W3C//DTD SVG 1.1//EN" "http://www.w3.org/Graphics/SVG/1.1/DTD/svg11.dtd" >
<svg xmlns="http://www.w3.org/2000/svg">
<metadata></metadata>
<defs>
<font id="contribute_free-versionRg" horiz-adv-x="729" >
<font-face units-per-em="2048" ascent="1638" descent="-410" />
<missing-glyph horiz-adv-x="526" />
<glyph horiz-adv-x="2048" />
<glyph horiz-adv-x="2048" />
<glyph unicode="&#xd;" horiz-adv-x="508" />
<glyph unicode=" "  horiz-adv-x="526" />
<glyph unicode="&#x09;" horiz-adv-x="526" />
<glyph unicode="&#xa0;" horiz-adv-x="526" />
<glyph unicode="A" horiz-adv-x="1846" d="M131 539q-37 -110 -37 -213q0 -171 104 -318t311 -147q83 0 183 24q309 74 475 264q83 96 128 263q19 73 56 297q36 -21 89 -64q69 -58 89 -73q21 -14 45 -27q-2 -86 -2 -167q0 -179 8 -336q31 -625 301 -625q12 0 24 1q127 13 200 135q23 39 23 73q0 14 -4 28 q-16 52 -91 77q-4 1 -9 1q-19 0 -54 -16q-45 -22 -39 -23q75 -11 97 -63q7 -18 7 -36q0 -28 -17 -58q-29 -48 -80 -55q-6 -1 -12 -1q-52 0 -100 54q-84 95 -122 361q-24 165 -24 425q0 89 3 189q27 -4 55 -4q115 0 234 70q29 17 -18 9q-48 -7 -63 -16q-44 -26 -92 -26 q-55 0 -114 34l1 53q14 503 71 1070q0 4 -7 4q-11 0 -41 -9q-45 -13 -55 -20q-143 -97 -236 -358q-50 -141 -134 -521q-31 3 -64 3q-46 0 -95 -6q-18 -1 -61 -22q-44 -21 -11 -18q34 4 74 4q48 0 104 -6q19 -3 41 -8q-107 -481 -241 -656q-138 -182 -364 -182 q-102 0 -221 37q-189 58 -227 299q-9 59 -9 119q0 138 50 275q78 214 286 246q25 4 49 4q68 0 131 -29q91 -41 149 -134q27 -41 27 -89q0 -58 -40 -125q-56 -96 -157 -167q-13 -9 35 -1q48 7 63 17q196 139 197 304q0 46 -16 94q-42 133 -202 167q-54 12 -111 12 q-78 0 -162 -22q-278 -74 -378 -372zM1363 783q4 18 5 26q113 556 272 770q-52 -539 -64 -924q-123 100 -176 119q-3 1 -37 9z" />
<glyph unicode="B" horiz-adv-x="1739" d="M135 -177q53 -32 128 -32q22 0 46 3q94 11 175 59q34 -11 46 -16q286 -109 408 -119q31 -3 62 -3q191 0 361 108q196 124 278 331q43 109 43 208q0 148 -97 274q-147 189 -422 237q298 81 364 311q13 46 13 90q0 117 -93 223q-117 134 -291 162q-79 13 -160 13 q-224 0 -460 -100q-138 -58 -241 -179q-107 -126 -130 -269q-12 -73 -12 -137q0 -113 37 -198q60 -141 205 -141q28 0 60 5q236 41 280 241q6 28 6 50q0 78 -72 108q-39 17 -86 16q-44 0 -95 -14q-52 -14 -48 -28q4 -13 56 2q16 4 29 4q55 0 69 -73q4 -23 4 -46 q0 -63 -31 -131q-46 -100 -113 -100h-1q-82 0 -158 165q-37 80 -37 169.5t37 188.5q65 176 207 299q158 137 370 137q60 0 125 -11q134 -23 237 -95q110 -76 161 -191q30 -67 30 -128q0 -105 -88 -194q-125 -127 -319 -137q-16 0 -20 -1q-11 0 -42 -13q22 178 44 624 q1 9 -59 -4t-61 -33q-41 -819 -223 -1258q-53 -127 -163 -258q-82 21 -151 22q-51 0 -95 -12q-63 -17 -108 -46q-36 -23 -36 -45q0 -20 31 -38zM230 -108q-2 4 -2 7q0 10 23 11q44 0 174 -39q-59 -49 -104 -49q-55 0 -91 70zM570 -81q297 266 383 922q48 2 95 8q-2 2 9 -11 q100 -11 191 -53q125 -49 232 -203q75 -110 75 -256q0 -19 -1 -39q-11 -155 -93 -289q-136 -220 -368 -220q-20 0 -42 2q-95 8 -481 139z" />
<glyph unicode="C" horiz-adv-x="1806" d="M103 646q11 -172 171 -262q136 -77 350 -82q15 -125 48 -226q66 -203 218 -305q126 -85 288 -85q20 0 41 1q103 -195 354 -266q4 -1 10 -1q21 0 61 19q48 24 45 25q-240 68 -333 246q63 18 123 47q133 62 204 150q65 80 65 167q0 32 -9 65q-25 97 -119 119q-25 6 -54 6 q-52 0 -117 -19q-182 -53 -256 -303q-15 -48 -15 -96q0 -54 19 -108q-65 3 -109 20q-313 119 -347 546q219 16 354 86q307 160 500 493q125 216 126 402q0 142 -74 266q-72 122 -216 122q-55 0 -121 -18q-195 -53 -329 -191q-186 -192 -285 -500q-80 -249 -80 -498 q0 -49 3 -98q-59 10 -105 24q-209 63 -289 291q-12 35 -13 67q0 39 19 75q30 57 92 78q26 9 50 9q33 0 63 -17q57 -33 68 -118q1 -5 13 -5q16 0 50 9q59 15 59 32q0 128 -106 179q-35 16 -75 16q-49 0 -107 -24q-101 -43 -169 -134q-67 -90 -67 -186q0 -9 1 -18zM737 358 q-1 29 -1 58q0 333 136 689q92 241 210 370t249 129q61 0 124 -28q133 -58 133 -251q0 -148 -78 -376q-91 -264 -298 -426q-210 -165 -469 -165h-6zM1337 -249q-26 68 -26 140q0 100 50 209q49 106 119 106q16 0 34 -6q85 -28 116 -151q7 -26 7 -50q0 -80 -74 -145 q-83 -74 -226 -103z" />
<glyph unicode="D" horiz-adv-x="1855" d="M92 -121q1 -45 71 -56q37 -6 73 -6q112 0 217 59q78 -31 139 -58q169 -75 332 -75q103 0 205 30q239 70 416 287q171 208 229 480q25 118 25 230q0 158 -49 306q-87 262 -325 423q-223 150 -499 164q-28 2 -56 1q-246 0 -440 -120q-236 -146 -318 -428q-21 -72 -21 -136 q0 -134 93 -230q63 -64 153 -82q31 -6 63 -6q65 0 135 26q76 28 122 95q41 61 41 128q0 73 -48 117q-46 42 -126 42q-10 0 -21 -1q-19 -1 -67 -23q-48 -23 -11 -21q9 1 18 1q99 0 126 -72q9 -24 9 -49q0 -47 -32 -99q-51 -82 -127 -83h-3q-89 0 -162 124q-44 75 -44 168 q0 58 17 123q35 136 130 269q158 217 450 217h5q250 -2 495 -148q266 -158 371 -602q22 -93 22 -190q0 -116 -32 -238q-58 -217 -199 -381q-147 -171 -338 -230q-87 -27 -176 -27q-124 0 -251 52q-159 65 -172 70q21 17 27 23q243 224 335 728q43 234 71 815q0 8 -59 -4 q-59 -13 -60 -33q-33 -681 -154 -1068q-88 -283 -226 -439q-91 27 -168 27q-81 0 -148 -30q-60 -27 -58 -70zM220 -44q3 8 21 8q46 0 193 -55q-57 -28 -130 -28h-14q-76 3 -76 47q0 12 6 28z" />
<glyph unicode="E" horiz-adv-x="1268" d="M105 1128q-4 -13 -4 -26q0 -39 38 -80q48 -51 131 -82q71 -26 137 -26q13 0 25 1q44 3 96 13q49 -102 158 -148q-184 -51 -311 -150q-150 -116 -184 -275q-18 -84 -18 -157q0 -213 149 -338q130 -109 315 -109q92 0 198 27q121 31 219 137q94 101 131 230q19 66 18 126 q0 63 -20 119q-46 123 -180 180q-73 32 -137 32q-116 0 -204 -104q-103 -122 -103 -283q0 -34 5 -69q2 -11 59 3q55 14 55 30l-5 78q0 144 80 232q44 49 100 49q6 0 13 -1q72 -7 151 -92q66 -70 66 -235q0 -30 -2 -62q-13 -205 -196 -301q-100 -51 -205 -51q-79 0 -162 29 q-122 42 -182 176q-49 108 -50 253q0 194 137 340q132 141 328 172q11 1 49 19q40 18 31 20q-135 41 -190 153q175 60 289 184q122 133 152 315q6 38 7 70q0 140 -124 147q-7 0 -15 1q-121 0 -247 -107q-121 -102 -179 -275q-33 -101 -33 -191q0 -68 19 -130q-27 -3 -53 -3 q-85 0 -161 28q-66 23 -84 103q-4 17 -4 32q0 58 59 80q54 21 25 25q-6 1 -13 1q-23 0 -50 -11q-106 -40 -124 -99zM626 995q-18 56 -18 120q0 75 24 162q42 147 133 266q77 99 123 99q4 0 8 -1q39 -9 49 -97q7 -54 7 -103q0 -114 -36 -200q-74 -178 -290 -246z" />
<glyph unicode="F" horiz-adv-x="1429" d="M101 1q15 -131 114 -217q89 -77 229 -107q78 -17 157 -17q55 0 111 8q137 20 230 81q211 137 244 377q325 1 357 330q1 10 1 19q0 49 -29 49q-49 -9 -42 -36q-32 -127 -91 -209q-72 -84 -191 -108q3 50 3 109q0 143 -17 342q-14 169 -14 281q0 68 5 114q17 156 108 329 q278 117 278 269q0 35 -34 35q-23 0 -63 -16q-69 -28 -107 -58q-130 -102 -201 -254q-138 -48 -284 -48q-86 0 -175 17q-245 46 -407 202q-6 5 -16 5q-18 0 -49 -14q-50 -22 -47 -25q160 -146 176 -341q19 -218 20 -220q29 -90 168 -106q12 -1 23 -1q52 0 98 29q53 33 79 90 q17 39 17 76q0 19 -4 37q-16 61 -77 97q-5 3 -14 3q-18 0 -51 -15q-48 -23 -41 -27q53 -32 76 -146q4 -21 4 -37q0 -56 -51 -55q-21 0 -50 9q-83 26 -94 128q-1 6 -1 17q0 42 10 156q1 11 1 22q0 57 -25 117q155 -60 329 -60q177 0 372 62q-83 -194 -83 -500v-7 q0 -102 11 -263q12 -202 14 -290q1 -21 0 -46q-136 82 -163 223q87 102 114 168q11 28 11 48q0 46 -59 51q-8 1 -16 1q-73 0 -118 -59q-44 -56 -48 -142v-7q0 -52 13 -98q-29 -29 -77 -72q-12 -11 33 -3q46 8 58 19q3 3 8 7q71 -136 242 -186q-22 -228 -183 -357 q-98 -77 -221 -77q-104 0 -226 55q-176 80 -233 276q-11 38 -11 74q0 35 10 68q20 63 65 94q28 19 57 19q19 0 38 -8q54 -23 89 -106q3 -6 15 -6q15 0 46 10q55 19 50 31q-50 119 -138 150q-28 10 -57 9q-52 0 -106 -30q-82 -46 -130 -138q-42 -80 -42 -163q0 -19 2 -38z M902 479q-1 13 -1 26q0 27 4 57q4 25 20 60h1q15 -19 15 -44q0 -41 -39 -99zM1305 1398q12 21 16 27q24 40 84 115q28 36 34 36q1 0 1 -2q0 -7 -17 -37q-48 -89 -75 -110q-13 -9 -43 -29z" />
<glyph unicode="G" horiz-adv-x="1471" d="M157 958q-50 -79 -50 -153q0 -80 59 -154q98 -123 287 -160q0 -3 -1 -8t-1 -7q-3 -35 -3 -69q0 -182 101 -321q103 -142 258 -142q45 0 93 12q254 61 398 458q19 -180 19 -329q0 -164 -23 -290q-236 -64 -358 -170q-63 -53 -70 -100q-1 -5 -1 -10q0 -36 33 -62 q53 -42 127 -42q36 0 77 10q246 59 308 391q208 48 263 69q31 12 31 18q0 4 -9 5q-25 3 -57 -9q-80 -32 -226 -69q13 76 13 197q0 232 -48 629q-1 11 -50 -2q-48 -14 -52 -26q-129 -381 -221 -515q-75 -110 -163 -123q-12 -2 -25 -2q-64 0 -128 51q-151 120 -182 328 q-8 55 -8 118q34 0 63 4q443 73 670 467q91 160 91 375v31q-9 275 -209 291q-9 1 -18 1q-161 0 -336 -234q-280 -370 -348 -867q-49 13 -85 29q-116 52 -139 217q-3 25 -3 49t3 49q2 52 22 76q18 21 44 16q61 -12 70 -93q1 -11 53 2q52 14 50 29q-15 138 -135 141h-6 q-111 0 -178 -106zM550 534q22 355 304 823q145 240 252 240q64 0 115 -86t51 -207q0 -137 -66 -318q-74 -205 -258 -335q-170 -119 -354 -119q-22 0 -44 2zM983 -482q-3 13 -3 25q0 29 15 58q61 115 297 181q-11 -59 -27 -111q-24 -85 -94 -176q-36 -47 -79 -55 q-10 -2 -19 -2q-27 0 -51 18q-30 23 -39 62z" />
<glyph unicode="H" horiz-adv-x="1695" d="M112 238q-13 -53 -13 -103q0 -82 35 -158q51 -112 165 -185q110 -71 244 -84q29 -3 56 -3q107 0 203 43q286 129 361 441q27 114 27 280q0 139 -19 315q-5 45 -8 91q157 -50 352 -169q-29 -198 -29 -386q0 -320 84 -612q2 -6 14 -6q15 0 46 9q55 17 51 31 q-81 279 -80 604q0 143 15 295q26 -18 49 -34q5 -4 14 -4q18 0 50 15q49 22 41 28q-86 62 -143 99q10 72 20 132q46 279 157 443q55 81 127 81q63 0 116 -58q50 -57 58 -130q1 -12 1 -23q0 -64 -44 -108q-1 -2 47 5t62 21q61 62 61 127q0 15 -3 30q-15 72 -94 123 q-78 50 -172 52h-7q-99 0 -167 -56q-121 -99 -184 -263q-41 -108 -75 -316q-195 111 -368 123v9q0 241 100 436q49 20 96 46q48 26 142 128q62 68 62 99q0 25 -40 28h-13q-99 0 -192 -100q-94 -101 -151 -212q-34 -9 -65 -9q-90 0 -162 72q-80 80 -125 235q-4 13 -60 -4 q-55 -17 -51 -30q89 -303 336 -303q54 0 116 15q-82 -173 -88 -409q-29 -3 -57 -7q-140 -22 -237 -83q-122 -76 -139 -195q0 -6 54 4q54 11 57 30q32 229 241 229q38 0 81 -8v-18q0 -84 8 -223q11 -182 12 -257v-26q0 -266 -137 -456q-121 -168 -300 -168q-71 0 -152 27 q-209 70 -286 313q-12 37 -12 73q0 33 10 66q18 65 62 99q30 23 61 23q17 0 34 -7q54 -21 92 -108q3 -7 15 -7q15 0 46 11q55 19 50 30q-32 73 -100 113q-62 37 -132 37h-7q-77 -2 -134 -47q-63 -49 -85 -136zM1287 1419q24 41 44 69q25 35 94 112l16 16l-1 -1 q-3 -119 -118 -172q-9 -7 -35 -24z" />
<glyph unicode="I" horiz-adv-x="589" d="M120 -314q200 25 295 270q82 214 110 564q8 98 17 296q9 191 17 282q20 243 26 275q135 58 194 98q50 34 58 77q1 8 1 16q0 30 -20 55q-27 31 -70 38q-11 2 -22 2q-36 0 -70 -20q-134 -79 -177 -286q-82 -37 -174 -96q-129 -80 -174 -214q-14 -42 -14 -79q0 -97 102 -150 q15 -8 58 12q42 20 36 23q-96 51 -95 145q0 19 3 40q19 104 114 194q52 50 138 94q-15 -86 -20 -225q-6 -177 -9 -208q-49 -542 -61 -646q-59 -503 -197 -520q-16 -2 -56 -22q-23 -11 -23 -14q0 -1 5 -2q3 0 8 1zM590 1406q21 99 65 176q92 -13 92 -48q0 -45 -157 -128z" />
<glyph unicode="J" horiz-adv-x="1058" d="M110 -22q-5 -31 -5 -60q0 -99 60 -160q68 -68 197 -78q24 -2 47 -2q96 0 196 32q125 38 194 104q169 161 193 604q4 71 8 469q4 284 31 468q110 42 142 60q83 44 95 96q8 34 8 59q0 42 -21 61q-15 14 -41 14q-21 0 -48 -9q-132 -43 -191 -144q-33 -59 -53 -156 q-120 -56 -227 -137q-104 -79 -123 -202q-3 -20 -3 -38q0 -106 100 -158q15 -8 58 12q42 20 36 23q-106 56 -106 140q0 45 29 97q64 113 228 221q-2 -13 -25 -320q-5 -65 -5 -176q0 -86 3 -200q2 -73 2 -136q0 -148 -10 -240q-25 -245 -148 -394q-98 -119 -228 -119 q-73 0 -157 38q-132 61 -136 262q0 172 184 172q21 0 44 -2q15 -19 32 -61q21 -48 29 -62t56 4t44 26l-81 138q-36 41 -90 41q-24 0 -52 -8q-232 -67 -266 -279zM1036 1388q0 3 1 9q1 5 1 8q-2 -10 12 27q21 58 38 93q34 70 59 70q21 0 36 -52q2 -8 2 -16q0 -65 -149 -139z " />
<glyph unicode="K" horiz-adv-x="1409" d="M113 41q-5 -34 -5 -64q0 -104 63 -168q71 -72 207 -83q24 -2 48 -2q101 0 208 34q131 40 204 110q178 170 203 635q4 68 6 165q82 -78 113 -236q9 -50 19 -139q12 -104 17 -140q70 -446 306 -659q73 -66 175 -66q56 0 120 20q198 61 198 210q0 7 -51 -3q-52 -11 -53 -29 q-15 -156 -108 -156q-43 0 -104 34q-157 88 -242 237q-82 144 -136 444q1 -8 -16 135q-15 124 -35 209q-56 235 -163 235q-17 0 -34 -6q162 52 310 322q131 238 197 318q78 95 133 95q59 0 90 -110q4 -13 56 3q52 15 48 29q-33 114 -123 129q-13 2 -26 2q-72 0 -157 -60 q-133 -93 -217 -229q-26 -42 -65 -123q-49 -101 -66 -133q-84 -157 -185 -213q4 497 34 703q116 45 150 63q87 46 100 101q8 36 8 63q0 44 -21 64q-17 15 -43 15q-22 0 -51 -10q-139 -46 -201 -152q-36 -62 -56 -164q-127 -59 -239 -144q-110 -84 -130 -214q-3 -21 -3 -40 q0 -111 105 -166q16 -8 61 13q44 21 38 24q-112 59 -112 148q0 47 31 101q67 120 241 234q-3 -18 -27 -338q-5 -69 -5 -185q0 -91 3 -211q2 -77 2 -143q0 -155 -10 -253q-27 -258 -156 -415q-103 -126 -240 -126q-78 0 -167 41q-138 64 -143 276q1 181 194 181q22 0 47 -2 q15 -20 34 -64q22 -51 30 -66q9 -14 59 5q51 19 46 27l-85 146q-38 43 -96 43q-25 0 -54 -8q-244 -71 -279 -294zM1087 1526q1 2 2 9q0 6 1 9q-2 -11 12 28q22 61 40 98q36 74 62 74q23 0 38 -55q2 -8 2 -17q0 -69 -157 -146z" />
<glyph unicode="L" horiz-adv-x="848" d="M87 909q0 -89 67 -162q66 -70 170 -99q57 -16 113 -16q51 0 100 13q66 18 133 50q0 6 -22 -255q-9 -104 -57 -251q-30 22 -65 36q-37 14 -84 14q-53 0 -119 -18q-124 -36 -172 -104q-45 -66 -45 -113q0 -41 34 -68q50 -39 152 -39q20 0 41 1q-58 16 -118 90 q-13 33 -13 61q0 119 232 142q50 -10 108 -75q7 -7 16 -19q-60 -142 -133 -186q25 6 45 14q76 28 131 90q12 -30 36 -108q90 -298 112 -339q80 -144 225 -144q32 0 68 7q199 40 300 165q52 65 52 132q0 84 -83 171q-12 12 -56 -7q-44 -20 -41 -23q55 -57 70 -138 q4 -25 4 -49q0 -51 -20 -97q-32 -72 -102 -102q-43 -18 -95 -18q-45 0 -96 13q-78 20 -127 102q-30 50 -62 155q-102 342 -123 376q50 105 76 305q22 167 35 340q298 209 310 577v18q0 118 -48 209q-62 118 -180 118h-4q-84 -2 -133 -77q-38 -58 -38 -179q0 -14 1 -30 q1 -35 8 -117q5 -60 5 -92v-10q-1 -175 -21 -432q-118 -69 -224 -69q-22 0 -43 3q-143 19 -204 167q-16 40 -16 83q0 78 52 170q30 52 75 59q7 1 14 1q34 0 69 -24q40 -26 66 -68q24 -40 24 -73v-5q-1 -6 47 3q48 10 50 27v13q0 59 -43 98q-42 39 -115 50q-34 5 -64 5 q-115 0 -183 -72q-92 -97 -92 -200zM333 -102q16 -5 32 -5q31 0 60 18q-44 -10 -92 -13zM779 819q13 201 13 392q0 95 -3 187q-1 20 -1 38q0 112 26 188q5 14 16 14q21 0 64 -51q52 -62 69 -99q33 -71 33 -160q0 -60 -15 -128q-30 -138 -110 -270q-35 -58 -92 -111z" />
<glyph unicode="M" horiz-adv-x="1639" d="M112 298q-12 -39 -12 -77q0 -50 21 -98q37 -85 122 -129q64 -32 140 -32q34 0 70 6q178 31 290 216q71 117 137 352q13 48 39 133q31 104 42 141q60 -627 63 -946q0 -9 57 4q56 13 57 31q12 189 106 426q18 43 187 411q13 -508 47 -790q29 -247 44 -306q53 -203 167 -203 h11q318 29 318 170q0 4 -49 -4q-51 -7 -63 -24q-68 -96 -124 -96q-57 0 -102 100q-39 89 -78 322q-34 209 -51 638q-4 97 -13 454q12 35 16 47q86 275 99 359q10 60 10 111q0 151 -84 222q-5 4 -16 4q-15 0 -42 -9q-44 -14 -52 -29q-70 -115 -70 -314v-32q1 -66 12 -187 q11 -124 13 -175q0 -1 1 -35q-15 -41 -22 -64q-40 -126 -133 -320q-118 -246 -146 -316v-2q-1 0 -79 915q14 97 14 182q0 149 -43 262q-5 14 -60 -2q-54 -17 -54 -32q0 -113 30 -453q-11 -69 -180 -677q-65 -230 -171 -355q-77 -91 -159 -90q-82 0 -168 91q-54 57 -54 131 q0 20 4 40q15 85 80 147q50 48 93 48q12 0 24 -4q59 -19 59 -139q0 -10 57 3t57 32q0 146 -114 170q-21 4 -42 4q-84 0 -178 -65q-98 -69 -128 -167zM1526 1284q-7 93 -6 164q0 98 12 156q20 -54 20 -127q0 -84 -26 -193z" />
<glyph unicode="N" horiz-adv-x="1640" d="M116 44q0 -98 64 -177q63 -79 161 -105q41 -11 83 -11l127 26q191 78 293 341q54 138 117 474q10 55 19 126q43 -103 99 -218q24 -49 212 -375q131 -226 179 -391q2 -7 14 -7q14 0 41 9q51 16 50 33q-19 557 -157 1160q-80 345 -79 491q0 256 158 256q49 0 114 -25 q80 -31 124 -102q41 -67 41 -152v-8q-2 -68 -55 -121q-39 -38 -81 -38q-20 0 -40 9q-53 23 -79 158q-3 13 -56 -3q-52 -16 -49 -32q32 -162 154 -178q13 -2 27 -2q95 0 202 85q90 71 90 165q0 83 -67 161q-65 74 -158 109q-57 21 -108 21q-37 0 -71 -11q-252 -85 -252 -372 v-2q0 -99 94 -508q84 -365 121 -759q-40 76 -133 232q-89 151 -131 232q-118 228 -180 435q7 126 9 289q2 195 2 206q-9 142 -63 182q-13 10 -56 -5t-46 -32q-22 -110 -22 -227q0 -209 70 -439q-15 -256 -59 -474q-65 -319 -127 -452q-102 -217 -257 -217q-42 0 -87 16 q-144 50 -147 277v3q0 84 60 168q40 57 84 57q37 0 77 -40q28 -29 28 -142v-8q0 -9 53 4q52 13 52 31v4q0 85 -40 137q-37 47 -100 57q-19 3 -38 3q-111 0 -197 -106q-84 -104 -84 -218z" />
<glyph unicode="O" horiz-adv-x="1358" d="M113 716q-14 -118 -14 -226q0 -157 30 -291q68 -296 273 -415q72 -41 159 -41q53 0 111 15q133 36 242 131q144 125 254 358q108 230 148 487q19 125 19 239q0 133 -26 251q-55 242 -213 369q-5 4 -14 4q-18 0 -52 -15q-51 -23 -42 -30q228 -183 228 -552 q0 -234 -92 -542q-89 -298 -248 -515q-108 -146 -234 -146q-53 0 -110 26q-166 77 -250 294q-79 199 -78 444v46q7 263 98 508q61 -17 126 -17q117 0 247 55q210 90 270 254q21 59 22 105q0 90 -83 130q-49 23 -105 23q-72 0 -155 -38q-229 -106 -359 -360q-33 61 -33 136 q0 39 9 82q1 4 -55 -5q-55 -10 -60 -30q-11 -51 -11 -94q0 -132 100 -201q-71 -186 -102 -439zM333 1191q74 171 180 297q102 121 179 147q20 7 38 7q41 0 68 -35q34 -43 38 -126q1 -11 1 -22q0 -67 -22 -127q-40 -110 -152 -162q-71 -32 -148 -32q-38 0 -78 8 q-59 13 -104 45z" />
<glyph unicode="P" horiz-adv-x="1342" d="M92 975v-16q0 -179 150 -310q185 -161 472 -161h4q24 -147 24 -273q0 -186 -53 -323q-37 -96 -119 -99q-3 0 -7 -1q-70 0 -131 62.5t-61 136.5v9q5 92 109 151q30 17 -19 10q-48 -7 -64 -16q-90 -51 -114 -137q-9 -30 -9 -61q0 -48 22 -96q36 -78 111 -114 q48 -24 100 -24q37 0 75 12q276 84 275 500q0 121 -23 271q237 29 433 156q205 133 285 327q38 91 38 184q0 112 -55 227q-99 210 -304 270q-45 13 -94 13q-144 0 -320 -114q-206 -135 -206 -434q0 -17 1 -34q2 -57 93 -534q1 -2 2 -8q1 -5 1 -8q-178 15 -306 100 q-166 109 -192 353q-2 18 -2 36q0 111 76 202q38 47 75 49h3q40 0 67 -54q3 -7 15 -7q15 0 46 11q55 19 50 29q-35 72 -114 72h-11q-71 -4 -150 -56q-167 -111 -173 -301zM743 1299q50 327 337 328h2q188 0 296 -187q91 -155 91 -351q0 -239 -202 -395q-183 -140 -441 -154 q-12 71 -47 233q-46 216 -47 381q1 78 11 145z" />
<glyph unicode="Q" horiz-adv-x="1298" d="M122 701q-15 -119 -15 -228q0 -158 31 -293q68 -299 275 -419q72 -41 158 -41q62 0 132 21q34 -152 143 -239q71 -57 161 -57q61 0 131 26q242 89 242 183q0 3 -49 -4q-52 -8 -64 -25q-91 -126 -187 -126q-44 0 -89 26q-124 72 -174 264q62 33 113 78q145 126 256 361 q109 232 149 491q20 127 20 242q0 134 -27 253q-55 244 -214 372q-5 4 -15 4q-18 0 -52 -15q-52 -22 -43 -30q231 -185 231 -557q0 -236 -93 -547q-90 -300 -251 -519q-40 -54 -84 -89q-1 11 -2 14q-20 147 -44 201q-45 105 -151 112h-3q-20 0 -63 -20q-47 -22 -30 -23 q96 -6 137 -114q19 -47 39 -191q1 -11 5 -32q-22 -4 -44 -4q-98 0 -195 82q-107 93 -165 239q-79 203 -79 453q0 21 1 42q8 265 99 512q62 -17 127 -17q118 0 249 55q213 91 273 257q22 60 22 106q0 90 -83 130q-50 24 -107 24q-72 0 -156 -39q-231 -106 -362 -362 q-34 62 -34 137q0 39 9 82q1 5 -55 -5t-60 -30q-11 -52 -11 -96q0 -133 101 -202q-72 -187 -103 -443zM343 1181q75 172 182 300q103 122 181 148q20 7 38 7q41 0 68 -35q35 -44 39 -127q1 -11 1 -22q0 -68 -22 -129q-40 -111 -154 -163q-71 -32 -147 -32q-39 0 -80 8 q-60 12 -106 45z" />
<glyph unicode="R" horiz-adv-x="1419" d="M96 965v-16q0 -178 150 -310q184 -160 470 -160h4q24 -148 24 -274q0 -184 -52 -321q-37 -95 -120 -99h-4q-71 0 -133 62q-61 62 -61 136v9q5 92 109 151q30 17 -19 10q-48 -8 -64 -17q-89 -50 -114 -136q-8 -30 -8 -59q0 -48 22 -97q35 -78 110 -114q47 -24 99 -24 q37 0 76 12q274 84 274 499q0 121 -23 269q58 7 120 23q11 1 22 1q193 0 229 -323q10 -90 11 -280q2 -166 12 -217q26 -122 109 -178q64 -42 151 -42q14 0 29 1q98 8 194 62q153 85 153 130q0 3 -47 -3q-50 -7 -62 -23q-86 -117 -188 -117q-30 0 -62 10q-135 42 -171 217 q-8 39 -19 358q-6 188 -42 284q-55 148 -190 160q350 136 467 420q38 90 38 183q0 111 -55 226q-99 210 -303 269q-46 14 -96 14q-143 0 -317 -114q-206 -135 -206 -433q0 -16 1 -33q3 -58 94 -533q0 -3 1 -8q1 -6 2 -8q-178 14 -306 99q-165 109 -191 353q-2 19 -2 38 q0 109 75 199q38 47 76 49h3q40 0 66 -55q3 -6 14 -6q16 0 47 11q54 19 49 29q-35 71 -113 71h-11q-71 -4 -149 -56q-167 -110 -173 -299zM745 1288q50 325 337 327h2q186 0 295 -187q91 -157 91 -354q-1 -235 -202 -389q-182 -140 -440 -155q-12 71 -47 233 q-46 216 -46 382q0 77 10 143z" />
<glyph unicode="S" horiz-adv-x="1681" d="M100 -142q103 -79 224 -79q113 0 243 69q163 -128 411 -128q36 0 73 3q292 20 468 181q150 136 150 365q0 24 -2 48q-14 218 -137 427q-60 101 -219 266q13 90 13 172q0 24 -1 48q-8 157 -78 287q-78 146 -196 146q-18 0 -36 -3q-100 -17 -133 -70q-20 -31 -20 -83 q0 -32 8 -72q19 -96 94 -193q28 -36 146 -159q46 -49 89 -97q-23 -142 -106 -362q-62 -167 -168 -344q-140 -233 -283 -349q-119 137 -127 367q0 10 -1 20q0 117 54 241q20 47 67 82q44 33 91 40q11 1 20 1q36 0 60 -20q29 -26 29 -80v-13q0 -8 57 4q58 12 59 32q1 9 0 17 q0 102 -80 125q-24 7 -51 7q-57 0 -131 -30q-289 -118 -289 -494q0 -20 1 -40q8 -199 144 -322q-75 -38 -147 -38q-96 0 -186 69q-5 4 -15 4q-18 0 -52 -15q-44 -20 -44 -28q0 -1 1 -2zM662 -94q207 145 353 370q196 301 271 606q97 -122 166 -239q98 -166 98 -349 q0 -103 -31 -212q-65 -230 -303 -295q-81 -22 -162 -22q-138 0 -278 63q-63 28 -114 78zM972 1567q0 29 18 28.5t53 -28.5q62 -50 85 -86q41 -64 72 -229q9 -52 9 -114v-23q-237 255 -237 452z" />
<glyph unicode="T" horiz-adv-x="1168" d="M114 1348q-16 -55 -16 -104q0 -135 124 -222q74 -52 169 -52q53 0 113 16q168 46 218 177q4 9 -49 -1q-52 -9 -62 -26q-50 -82 -134 -82q-16 0 -33 3q-97 16 -153 96q-45 65 -45 151q0 45 12 95q36 150 179 174q26 4 52 4l204 -66q184 -121 383 -177q17 -4 43 -10 q-177 -162 -185 -443v-11q0 -105 52 -491q12 -91 12 -170q0 -120 -28 -212q-64 -209 -265 -209h-17q-181 8 -304 244q-45 86 -45 179q0 65 22 132q31 95 127 136q52 22 105 22q36 0 73 -10q93 -26 122 -101q10 -27 10 -56q0 -67 -51 -149q-4 -6 49 2q52 7 63 25 q54 86 54 157q0 7 -1 14q-5 69 -62 113q-70 53 -170 53q-67 0 -147 -24q-162 -49 -248 -153q-76 -93 -76 -215q0 -29 4 -60q28 -193 169 -287q102 -67 231 -67q32 0 66 4q169 22 289 134q132 122 144 301q2 27 1 58q0 123 -28 305q-42 266 -45 362v16q0 166 115 340 q16 23 36 47q51 -8 99 -8q110 0 208 40q88 36 166 114q60 58 58 71q-1 18 -26 31q-20 10 -41 12q-10 1 -20 1q-69 0 -159 -30q-127 -41 -276 -151q-34 10 -72 23q-102 35 -255 136q-129 85 -225 99q-54 9 -105 8q-116 0 -211 -44q-162 -75 -218 -264zM1259 1374 q122 97 323 97q-71 -110 -214 -111q-50 1 -109 14z" />
<glyph unicode="U" horiz-adv-x="1731" d="M170 1001q44 -71 131 -103q62 -22 130 -22q23 0 47 2q96 11 172 58q82 50 116 129q4 8 -54 -1q-58 -10 -69 -29q-49 -87 -144 -89h-3q-87 0 -153 67q-71 72 -83 195q-2 22 -2 44q0 124 74 221q79 104 207 141q56 16 107 16q69 0 131 -28q119 -54 161 -193q24 -78 24 -168 q0 -157 -72 -354q-164 -450 -180 -547q-18 -109 -18 -197q0 -99 23 -171q58 -179 253 -179q18 0 37 2q132 11 262 108q81 60 213 203q4 -158 29 -291q28 -145 122 -218q80 -61 196 -61h11q113 2 226 60q182 94 182 149q0 3 -53 -4q-56 -8 -70 -26q-78 -101 -168 -127 q-29 -8 -57 -8q-50 0 -99 26q-71 37 -119 117q-47 80 -54 173q-7 112 -7 217q0 113 8 219q48 611 278 1290q4 12 -56 1t-67 -30q-290 -858 -302 -1388q-247 -242 -332 -290q-70 -40 -126 -40q-119 0 -171 181q-19 69 -19 154q0 105 29 236q18 80 54 199q52 171 55 185 q93 332 94 509q0 34 -4 62q-34 282 -347 282q-32 0 -67 -3q-140 -12 -268 -81q-129 -70 -198 -174q-73 -111 -73 -221q0 -102 63 -203z" />
<glyph unicode="V" horiz-adv-x="1249" d="M121 1220q-26 -83 -26 -158q0 -127 74 -230q84 -115 230 -115h17q138 5 261 97q14 10 -37 2q-51 -9 -66 -20q-70 -53 -133 -52q-19 0 -37 4q-69 18 -118 98q-45 72 -61 171q-8 48 -8.5 91.5t8.5 81.5q33 155 129 235q61 50 130 50q58 0 122 -36q125 -70 194 -342 q44 -172 44 -420q0 -370 -98 -908l-5 -29q0 -2 7 -2q12 0 46 6q55 11 61 27q230 620 468 1058q353 648 603 648q57 0 109 -34q5 -4 14 -4q18 0 53 16q43 20 43 26q0 1 -1 2q-82 53 -170 53q-286 0 -642 -557q-216 -339 -410 -787l3 36q32 274 32 492q0 259 -45 440 q-92 373 -368 372q-74 0 -161 -26q-193 -59 -262 -286z" />
<glyph unicode="W" horiz-adv-x="1902" d="M129 1221q-26 -85 -26 -161q0 -131 76 -236q86 -119 237 -119h17q141 6 268 100q14 11 -38 2q-53 -9 -68 -20q-72 -54 -137 -53q-19 0 -38 4q-70 18 -121 100q-46 74 -63 176q-8 50 -8.5 94t8.5 83q35 159 133 241q62 52 133 52q60 0 126 -37q127 -73 198 -351 q45 -177 45 -432q0 -379 -100 -931q-1 -6 55 5t62 27q56 148 377 874q208 471 354 647q-99 -338 -99 -755q0 -371 78 -805q1 -6 13 -6q15 0 46 9q57 15 59 33q43 565 231 1106q129 370 305 561q108 117 205 117q132 0 245 -217q4 -7 17 -7q17 0 49 12q53 18 53 29q0 1 -1 2 q-123 238 -319 238q-31 0 -64 -6q-214 -40 -384 -288q-278 -407 -398 -1109q-18 190 -18 365q0 496 140 880q5 12 -48 -1q-51 -13 -63 -22q-231 -186 -456 -674q-172 -374 -259 -575q37 300 36 536q0 255 -42 437q-93 396 -381 397q-76 0 -165 -28q-198 -61 -270 -294z" />
<glyph unicode="X" horiz-adv-x="1359" d="M120 21q27 -107 108 -187q86 -84 205 -110q34 -8 69 -8q127 0 258 104q132 106 220 270q50 91 120 273v-53v-14q0 -297 41 -455q75 -289 294 -317q43 -5 83 -5q159 0 259 87q125 108 131 327q0 9 -57 -3q-56 -13 -57 -31q-4 -175 -54 -254q-51 -81 -154 -81q-44 0 -98 15 q-108 30 -192 189q-81 155 -83 576q0 91 7 330q157 402 304 601q210 284 477 305q18 1 64 23q26 12 26 16q0 3 -15 3q-302 -23 -526 -249q-167 -169 -327 -500q0 16 1 32q0 230 -28 395q-30 186 -128 281q-74 72 -170 71q-54 0 -115 -22q-84 -32 -133 -110q-45 -71 -45 -152 q0 -86 54 -142t150 -56h10q19 1 65 22q45 21 10 20h-7q-89 0 -136 73q-37 55 -37 127q0 15 2 30q9 91 63 134q31 25 70 25q36 0 78 -22q85 -45 128 -184q22 -73 42 -227q16 -124 16 -317q0 -105 -5 -230l1 1q1 0 -97 -252q-73 -190 -139 -309q-158 -285 -337 -286 q-50 0 -102 23q-172 74 -221 330q-4 19 -4 39q0 63 41 122q48 68 125 98q38 15 71 15q34 0 61 -16q59 -34 59 -130v-6q0 -9 56 3q57 12 57 31v9q0 159 -139 178q-20 3 -41 3q-104 0 -219 -71q-109 -67 -150 -174q-22 -57 -22 -117q0 -45 12 -91z" />
<glyph unicode="Y" horiz-adv-x="1598" d="M115 1049q24 -91 99 -140q62 -40 134 -40q9 0 17 1q83 6 132 58q42 47 42 115q0 18 -3 37q-1 7 -13 7q-15 0 -47 -11q-55 -18 -55 -30l4 -41q0 -27 -9 -45q-15 -27 -46 -27h-1q-72 0 -112 107q-33 88 -33 178q0 87 31 177q27 75 90 128q60 50 131 63q22 4 42 4 q47 0 86 -23q61 -36 81 -119q7 -29 7 -78q0 -103 -29 -294q-69 -458 -70 -465q-1 -19 -1 -36q0 -312 200 -325q26 -2 51 -2q394 0 579 444q-46 -423 -189 -690q-42 -79 -111 -152q-49 32 -224 166q-50 38 -116 38t-149 -38q-91 -41 -123 -121q-15 -39 -15 -82q0 -44 16 -92 q28 -83 145 -98q28 -4 57 -4q61 0 129 17q142 34 257 114q163 -76 336 -76q46 0 94 6q18 3 64 25q26 12 26 17q0 3 -15 1q-40 -5 -80 -5q-178 0 -345 96q262 244 343 789q41 276 43 873q0 9 -57 -3q-57 -13 -58 -32q-7 -267 -141 -767q-44 -164 -112 -242 q-117 -131 -246 -131q-25 0 -50 5q-68 13 -116 62q-48 50 -61 123q-5 31 -5 77q0 91 21 241q59 404 58 395q10 92 10 165q0 101 -20 162q-39 118 -155 118q-16 0 -33 -2q-236 -28 -383 -191q-118 -130 -118 -288q0 -58 16 -119zM612 -227q-10 29 -10 58q0 36 16 72 q31 67 94 74q7 1 13 1q70 0 153 -77q74 -70 168 -122q-135 -109 -260 -109q-39 0 -78 11q-72 19 -96 92z" />
<glyph unicode="Z" horiz-adv-x="1274" d="M96 1025q24 -171 205 -212q39 -9 77 -9q101 0 198 60q138 85 153 222q1 6 -54 -4q-56 -11 -58 -31q-12 -107 -69 -155q-38 -32 -87 -32q-16 0 -34 4q-68 14 -123 71q-58 60 -74 141q-9 42 -9 85q0 72 25 143q37 109 120 192q141 139 317 139q59 0 122 -16 q304 -74 304 -334q0 -43 -8 -90q-46 -265 -274 -519q-81 -90 -236 -184l-1 -2q-28 -13 -66 -33q-48 -24 -55 -27q-44 -23 -1 -19q42 4 64 15q20 9 51 26q4 0 12 5q9 6 28 16l14 8q113 61 246 61q17 0 35 -1q139 -33 150 -225q1 -19 1 -39q0 -116 -40 -248 q-57 -187 -173 -274q-79 -60 -171 -60q-71 0 -150 36q-81 37 -122 125q-29 61 -28 124q0 19 2 38q10 83 63 117q26 17 58 17q39 0 87 -25q5 -3 13 -3q19 0 51 17q47 23 43 26q-88 52 -173 52q-43 0 -85 -13q-140 -44 -173 -222q-6 -32 -6 -62q0 -154 170 -234 q107 -50 211 -50q77 0 153 27q250 90 352 335q53 126 53 251q0 95 -31 190q-37 111 -161 141q-42 10 -87 10q-74 0 -157 -27q464 323 464 720v17q-4 146 -95 239q-81 82 -218 115q-95 23 -185 23q-167 0 -318 -77q-149 -76 -244 -239q-81 -138 -81 -274q0 -34 5 -68z" />
<glyph unicode="a" horiz-adv-x="713" d="M0 282v-17q0 -134 46 -203q38 -57 101 -57q40 0 89 22q83 38 144 141q0 -42 1 -81q4 -72 48 -84q9 -2 21 -2q33 0 89 17q109 33 176 129q44 62 86 197q5 4 5 6q0 3 -15 1q-6 4 -24 1q-50 -7 -58 -23q-37 -121 -105 -224q-38 -57 -65 -70q-7 -3 -14 -3q-23 0 -35 38 q-12 37 -12 90q0 14 1 30q2 25 6 63q6 53 6 58q19 199 74 475q1 4 -49 -5q-49 -8 -53 -26q-1 -4 -2 -13l-3 -12q-36 51 -99 65q-22 5 -46 5q-46 0 -96 -19q-125 -47 -178 -210q-36 -112 -39 -289zM101 313v14q0 211 88 377q33 63 73 65h3q32 0 64 -39q29 -36 48 -90 q15 -46 15 -81v-11q-13 -206 -123 -410q-40 -74 -74 -78h-2q-28 0 -50 45q-40 83 -42 208z" />
<glyph unicode="b" horiz-adv-x="765" d="M1 456q-1 -22 -1 -44q0 -246 137 -363q59 -49 128 -49q34 0 71 12q96 32 171 126q29 -7 58 -7q90 0 173 66q137 110 137 213q0 9 -47 4q-50 -5 -56 -22q-38 -99 -97 -146q-44 -35 -92 -35q-15 0 -29 3q73 159 72 345q0 106 -36 156q-33 44 -91 44q-22 0 -47 -6 q-106 -25 -162 -100q-51 -68 -51 -162q0 -91 47 -176q48 -88 131 -140q-1 1 19 -10q-1 -3 -5 -13q-4 -7 -6 -12q-40 -82 -99 -81q-24 0 -52 13q-79 39 -123 136q-40 88 -40 218v6q32 8 40 20q225 372 374 671q74 150 88 238q3 20 3 37q0 84 -78 84q-27 0 -63 -10 q-165 -45 -264 -227q-57 -104 -123 -342q-79 -282 -87 -447zM118 547q7 65 31 194q45 241 144 485q36 87 91 152q46 54 80 54q26 0 47 -31q11 -16 11 -41q0 -23 -10 -53v1q-1 0 -38 -91q-103 -252 -356 -670zM350 434q-6 18 -6 43t6 57q11 61 37 108q28 52 58 57h5 q31 0 56 -57q10 -24 10 -81t-10 -149q-9 -77 -35 -158q-83 62 -121 180z" />
<glyph unicode="c" horiz-adv-x="573" d="M16 171q43 -171 193 -171h2q186 1 296 90q162 132 162 269q0 3 -13 4q-14 0 -33 -4q-50 -9 -55 -25q-51 -158 -122 -234q-63 -67 -138 -67q-47 0 -98 26q-105 52 -105 261q0 54 7 119q10 100 51 209q39 104 80 104q20 0 40 -24q31 -37 31 -109q0 -81 -39 -205 q-1 -4 14 -4q14 0 33 4q50 9 55 25q35 113 36 199q0 16 -2 32q-10 133 -120 133q-8 0 -18 -1q-116 -9 -182 -120q-46 -76 -74 -218q-17 -84 -17 -158q0 -72 16 -135z" />
<glyph unicode="d" horiz-adv-x="771" d="M0 282v-17q0 -136 46 -207q39 -58 103 -58q40 0 90 23q89 40 153 154q-1 -18 -1 -34q0 -76 31 -111q29 -32 87 -32q21 0 47 4q126 22 206 125q109 141 109 226q0 7 -46 0q-49 -9 -55 -25q-42 -125 -120 -227q-51 -67 -88 -67q-40 0 -62 80q-11 40 -11 93q0 60 14 138 q9 45 27 120q19 82 25 110q60 302 166 783q0 1 -4 1q-10 0 -45 -6q-50 -9 -54 -27q-16 -72 -70 -307q-44 -192 -69 -310q-32 67 -101 88q-28 8 -59 8q-47 0 -99 -19q-213 -80 -220 -506zM103 313v18q0 212 89 379q33 63 73 66h3q33 0 65 -39q65 -81 65 -170v-15 q-14 -210 -125 -417q-43 -79 -78 -79q-27 0 -50 47q-40 83 -42 210z" />
<glyph unicode="e" horiz-adv-x="559" d="M12 218q36 -186 172 -210q43 -8 82 -8q127 0 223 81q168 143 168 279q0 3 -13 3q-14 0 -33 -3q-50 -9 -55 -25q-52 -161 -134 -243q-56 -56 -113 -56q-59 0 -120 60q-66 65 -80 197q23 5 30 9q170 101 246 286q24 57 25 105q0 7 -1 14q-5 71 -67 85q-24 6 -48 5 q-88 0 -163 -79q-77 -83 -109 -206q-22 -85 -22 -169q0 -63 12 -125zM106 328q-1 19 -1 38q0 45 5 93q8 79 63 199q30 65 59 85q12 8 23 8q21 0 41 -30q20 -31 20 -71q0 -60 -47 -138q-61 -102 -163 -184z" />
<glyph unicode="f" horiz-adv-x="523" d="M-18 -343q4 -110 64 -148q28 -18 64 -18q42 0 93 23q138 63 157 226q3 26 3 52q0 117 -63 233q144 34 217 124q63 79 106 198q2 6 2 11q0 21 -26 21q-7 0 -17 -2q-52 -9 -57 -26q-28 -97 -108 -200q-62 -65 -145 -105q-15 -1 -51 -13q-44 -14 -38 -23q32 -53 61 -154 q9 -30 9 -67q0 -70 -31 -165q-21 -66 -49 -79q-7 -3 -13 -3q-27 0 -56 51q-25 44 -25 137v21q1 32 5 87q5 56 5 75q3 100 11 213q44 8 53 23q208 378 341 695q84 200 102 266q24 84 24 147q0 77 -35 124q-22 32 -77 32q-16 0 -35 -3q-69 -10 -118 -41q-92 -56 -151 -179 q-35 -72 -79 -225q-147 -511 -147 -1114q0 -96 4 -194zM107 232q30 356 100 669q60 268 161 412q45 65 73 65q33 0 43 -91q6 -54 6 -100q0 -71 -14 -124q-83 -313 -369 -831z" />
<glyph unicode="g" d="M3 270v-17q0 -135 46 -207q39 -58 103 -58q40 0 91 23q97 44 164 175l-6 -33t-6 -32q-15 -80 -28 -159l-30 -20q-187 -124 -259 -266q-21 -43 -21 -99q0 -23 3 -48q12 -99 80 -104h15q121 0 198 123q60 94 88 246q13 72 32 183q28 12 52 18q123 29 198 128 q105 137 105 221q0 7 -46 -1q-50 -9 -55 -25q-45 -133 -84 -187q-56 -79 -163 -113q90 545 164 787q2 5 -11 5q-12 0 -35 -4q-50 -10 -55 -26q-18 -59 -40 -144q-15 101 -93 141q-40 20 -86 20t-100 -20q-214 -79 -221 -507zM106 302v14q0 214 89 383q34 64 74 66h3l65 -39 q65 -81 65 -170v-15q-14 -210 -126 -417q-43 -80 -78 -80q-27 0 -50 47q-40 83 -42 211zM160 -385v12q0 73 57 152q53 73 143 135q-13 -81 -17 -113q-19 -134 -69 -245q-25 -56 -52 -56q-12 0 -24 12q-33 33 -38 103z" />
<glyph unicode="h" horiz-adv-x="686" d="M-9 4q0 -4 10 -4q13 0 42 7q53 12 54 29q14 224 143 476q50 99 90 157q38 55 56 55q15 0 15 -42q0 -107 -43 -280q-54 -213 -63 -278q-1 -10 -1 -19q0 -62 60 -79q23 -7 51 -7q34 0 75 10q125 30 202 131q109 141 109 227q0 8 -48 -1q-51 -9 -56 -26q-49 -143 -82 -200 q-59 -101 -129 -101q-18 0 -37 7q-42 15 -41 82q0 20 3 44q5 34 19 83q19 69 18 63q1 6 28 100q24 83 36 140q15 72 15 122q0 78 -35 105q-10 7 -24 7q-25 0 -64 -21q-44 -23 -76 -53q-129 -117 -216 -306q2 50 5 98q40 9 42 25q45 267 227 585q4 8 35 55q28 42 42 70 q28 54 28 92q0 26 -13 44q-24 34 -70 33q-35 0 -84 -19q-94 -39 -138 -94q-92 -116 -130 -347q-9 -56 -35 -373q-21 -243 -21 -496q0 -50 1 -101zM134 813q16 124 37 234q32 163 93 275q20 35 43 47q11 6 21 5.5t18 -5.5q17 -12 20 -39q1 -6 1 -13q0 -24 -12 -52 q-36 -84 -111 -229q-79 -152 -110 -223z" />
<glyph unicode="i" horiz-adv-x="366" d="M35 11q37 -11 73 -11q112 0 208 105q95 104 146 254q-2 13 -3 33q-14 0 -34 -3q-51 -10 -56 -26q-52 -149 -80 -200q-61 -110 -149 -115q-2 0 -5 -1q-58 0 -58 91q0 31 7 74q51 300 120 596q1 4 -51 -5q-51 -9 -56 -28q-57 -247 -110 -542q-17 -98 -17 -125q0 -79 65 -97 zM145 1027q-1 4 -1 8q0 19 16 36q19 20 50 24q8 1 15 1q21 0 39 -10q24 -14 27 -37q1 -4 0 -8q0 -19 -15 -36q-19 -19 -50 -24q-7 -1 -14 -1q-22 0 -40 10q-24 14 -27 37z" />
<glyph unicode="j" horiz-adv-x="272" d="M-361 -443q13 -97 79 -101h15q117 0 193 119q58 92 85 241q13 70 31 178q28 12 51 18q120 28 193 124q103 135 103 216q0 7 -45 -1q-49 -8 -54 -24q-44 -130 -81 -183q-55 -77 -160 -110q88 532 161 768q2 9 -46 0q-49 -8 -53 -24q-64 -208 -145 -644q-14 -77 -27 -155 q-14 -9 -29 -19q-182 -121 -253 -260q-21 -42 -21 -98q0 -22 3 -45zM-263 -359v14q0 143 195 278q-12 -79 -17 -110q-18 -131 -67 -239q-25 -55 -50 -55q-12 0 -24 12q-32 32 -37 100zM131 969q3 -22 26 -35q18 -10 39 -10q6 0 13 1q28 4 46 23q15 16 15 35v6q-3 23 -26 35 q-17 10 -38 10q-6 0 -13 -1q-29 -4 -47 -23q-15 -16 -15 -35v-6z" />
<glyph unicode="k" horiz-adv-x="699" d="M3 4q0 -4 10 -4q13 0 43 7q53 13 53 30q4 174 66 350q39 77 79 77q7 0 14 -2q54 -18 65 -69q3 -14 3 -37q0 -26 -4 -63q-1 -4 -13 -75q-8 -50 -9 -82q0 -95 75 -117q21 -7 45 -7q72 0 175 59q78 44 129 137q71 126 71 180q0 8 -48 0q-51 -10 -56 -26q-33 -103 -67 -173 q-37 -77 -107 -114q-25 -14 -45 -14q-44 0 -61 67q-3 12 -3 32q0 49 19 142q9 41 8 75q0 57 -24 90q-29 40 -94 45q-11 1 -23 1q-43 0 -84 -15h-1q146 322 541 725q2 1 -45 -5q-46 -7 -59 -20q-369 -375 -518 -677q25 168 204 903q0 1 -4 1q-11 0 -47 -6q-51 -9 -56 -28 q-158 -649 -165 -687q-69 -339 -69 -605q0 -49 2 -95z" />
<glyph unicode="l" horiz-adv-x="408" d="M-8 305q-1 -24 -1 -47q0 -128 33 -215q16 -43 87 -43h10q57 3 114 25q112 44 178 138q97 136 97 213q0 8 -48 0q-52 -9 -58 -26q-35 -110 -115 -225q-61 -89 -105 -89q-38 0 -62 66q-20 51 -20 140q0 19 1 39q30 8 36 19q185 342 297 662q56 159 69 226q10 51 10 94 q0 79 -35 128q-19 26 -63 26q-12 0 -26 -2q-26 -4 -93 -26q-146 -48 -196 -266q-44 -192 -85 -570q-24 -226 -25 -267zM110 419q11 214 71 613q15 105 65 230q49 125 96 125q23 0 45 -31q20 -28 20 -82q0 -18 -2 -39q-2 -16 -24 -124q-58 -283 -271 -692z" />
<glyph unicode="m" horiz-adv-x="1316" d="M-1 333q0 -3 13 -3q14 -1 33 3q49 9 55 25q93 284 149 365q15 22 28 22q23 0 39 -66q18 -75 18 -129q-2 -109 -27 -245q-22 -79 -69 -294q-1 -5 48 4q49 8 53 23q1 4 31 106q74 236 150 403q85 186 132 186q12 0 22 -12q44 -53 44 -166t-44 -285q-50 -163 -77 -266 q-1 -4 13 -4t33 4q50 9 54 25q41 145 56 207q71 255 133 421q10 27 37 49q26 20 57 27q31 8 54 -4q24 -13 30 -48q1 -10 1 -22q0 -37 -14 -86q-6 -19 -19 -55q-13 -35 -17 -51q-69 -227 -69 -353v-20q4 -66 64 -77q11 -2 25 -2q35 0 89 13q117 28 189 127q54 73 100 214v1 q0 3 -13 3q-14 0 -33 -4q-49 -8 -55 -24q-35 -112 -93 -206q-59 -96 -105 -96q-27 0 -51 33q-23 32 -23 92q0 38 9 86q4 25 46 172q-1 -3 35 103q25 75 32 122q3 19 2 36q0 103 -102 103h-10q-162 -7 -243 -114q1 2 -8 -11q-18 119 -105 119q-12 0 -26 -2 q-124 -21 -217 -147q-8 93 -53 128q-46 35 -91 35q-93 0 -181 -150q-129 -218 -129 -315z" />
<glyph unicode="n" horiz-adv-x="958" d="M-8 329q0 -4 14 -4t33 3q50 9 55 25q96 293 156 371q10 13 18 13q21 0 32 -82q8 -62 8 -107q0 -14 -1 -26q-10 -201 -72 -520q0 -2 6 -2q11 0 42 6q50 8 54 24q96 365 184 618q16 48 50 77q32 27 66 28t53 -27q16 -23 16 -61q0 -13 -2 -27q-10 -77 -54 -217 q-46 -149 -58 -217q-6 -39 -6 -70q0 -61 25 -87q25 -25 85 -25q28 0 62 5q122 19 201 125q57 78 104 223q0 3 -13 4q-15 0 -34 -4q-50 -9 -55 -25q-36 -113 -91 -205q-60 -100 -109 -100q-26 0 -50 28q-27 33 -26 97q0 32 6 73q5 29 43 167q3 12 40 120q27 80 34 128 q2 17 3 32q0 44 -20 71q-30 41 -111 41q-77 -1 -141 -37q-63 -36 -102 -101q-8 -13 -15 -30q-2 90 -35 136q-12 16 -42 16q-19 0 -44 -6q-50 -11 -89 -32q-89 -47 -146 -187q-19 -47 -40 -120z" />
<glyph unicode="o" horiz-adv-x="706" d="M9 190q19 -123 112 -169q44 -21 94.5 -21t108.5 21q80 30 134 103q34 -7 66 -7q27 0 54 5q228 43 228 248q0 3 -13 3q-14 0 -33 -4q-48 -8 -53 -24q-23 -74 -71 -147q-29 -45 -75 -45q-31 0 -71 21q42 78 66 197q17 83 17 149q0 26 -3 49q-12 129 -102 129h-8 q-112 -6 -180 -74q-67 -67 -76 -180q-1 -11 -1 -22q0 -82 46 -154q48 -77 133 -118q-51 -96 -107 -111q-10 -3 -20 -3q-57 0 -113 90q-41 67 -41 185q0 65 12 146q14 89 82 209q38 68 74 90q16 10 31 10q25 0 49 -28q11 -13 58 6q17 7 31 15q13 8 12 10q-25 30 -77 30 q-20 0 -44 -4q-69 -13 -124 -47q-128 -79 -178 -247q-27 -92 -27 -192q0 -58 9 -119zM316 532q7 69 30 101q18 23 43 23q15 0 32 -8q42 -19 48 -101q1 -11 1 -28q0 -34 -4 -92q-5 -85 -49 -200q-52 48 -78 93q-15 25 -22 87q-4 36 -4 69q0 29 3 56z" />
<glyph unicode="p" horiz-adv-x="704" d="M-111 -519q0 -1 4 -1q10 0 45 6q51 9 54 27q51 256 94 507q37 -23 89 -23q41 0 90 14q86 24 167 116q27 -5 54 -5q89 0 171 54q110 72 153 206v1q0 8 -47 0q-50 -9 -55 -26q-34 -104 -96 -144q-37 -23 -79 -23q-24 0 -49 7q92 141 103 290q2 19 2 38q0 137 -87 214 q-58 51 -124 54h-6q-54 0 -127 -31q-34 -14 -59 -41q-1 45 -6 76q-1 6 -12 6q-13 0 -39 -8q-49 -15 -52 -29q-82 -326 -82 -507q0 -73 13 -122zM108 149q20 128 37 242q0 4 4 28q18 -69 48 -118q70 -118 180 -159q-41 -73 -96 -92q-18 -7 -37 -7q-53 0 -110 57 q-17 17 -26 49zM244 648q15 61 45 83q16 12 36 12q24 0 52 -17q83 -50 86 -222v-14q0 -124 -48 -261q-112 71 -167 209q-19 46 -19 102q0 50 15 108z" />
<glyph unicode="q" horiz-adv-x="721" d="M2 279v-17q0 -135 46 -205q38 -58 102 -58q40 0 90 23q96 43 162 173q-2 -12 -6 -33q-4 -22 -6 -32q-17 -91 -34 -205q-95 -128 -121 -260q-9 -42 -9 -79q0 -104 68 -171q6 -6 19 -6t33 7q35 12 50 27q26 26 29 103q1 22 0 62q-1 37 0 50q6 124 32 292q23 31 46 56 q124 27 200 116q117 137 117 229q0 8 -46 0q-49 -9 -54 -25q-46 -135 -78 -184q-57 -87 -159 -112q-5 -1 -14 -4q1 3 2 9t1 9q82 490 166 765q2 5 -10 5t-36 -5q-50 -8 -55 -25q-18 -58 -39 -142q-15 100 -93 139q-39 20 -86 20q-46 0 -98 -19q-212 -79 -219 -503zM104 310 v14q0 212 89 380q33 63 73 66h3q33 0 64 -39q65 -80 65 -169v-15q-14 -208 -125 -414q-42 -79 -77 -79q-27 0 -50 47q-40 83 -42 209zM335 -439q-6 29 -6 61q0 34 7 71q1 -34 1 -62q0 -42 -2 -70z" />
<glyph unicode="r" horiz-adv-x="625" d="M-33 746q-14 -25 -14 -44q0 -25 25 -40q31 -18 99 -18h14q-15 -73 -108 -351q-1 -4 12 -8t30 -3q47 2 60 34q74 180 108 339q31 5 48 10q93 25 151 51q-87 -196 -121 -363q-31 -156 -33 -173q-3 -29 -3 -53q0 -83 37 -111q21 -16 60 -16q19 0 43 4q53 9 104 31 q98 42 159 136q85 131 85 199q0 3 -13 3q-15 0 -34 -4q-51 -9 -56 -25q-62 -193 -145 -275q-40 -39 -68 -39q-20 0 -34 21q-20 31 -25 101q-1 17 -1 35q0 241 174 610q4 9 -42 -1q-47 -11 -57 -20q-73 -65 -221 -83q17 77 17 122q0 61 -30 66q-13 2 -26 2l-104 -35 q-57 -39 -91 -102zM94 701q-28 14 -28 41q0 31 35 78q-6 -9 -7 -119z" />
<glyph unicode="s" horiz-adv-x="743" d="M-78 705v-8q0 -33 31 -59q32 -28 104 -51q0 4 -69 -286q-1 -4 46 4t51 25q3 13 29 97q23 78 35 131q13 -4 14 -5q183 -70 278 -192q37 -46 46 -108q3 -19 3 -36q0 -40 -14 -76q-21 -55 -67 -79q-31 -16 -68 -16q-25 0 -53 7q-71 18 -97 120q-2 12 -2 23q0 27 13 52 q16 39 44 4q15 -19 32 -57q5 -12 53 4t44 26q-24 54 -74 73q-23 9 -48 9q-23 0 -48 -8q-51 -15 -82 -56q-30 -39 -30 -88v-12q8 -103 125 -133q39 -10 79 -10q66 0 135 27q25 -5 52 -5q36 0 74 9q65 15 114 51q61 44 103 123q58 114 58 153q0 3 -12 3q-14 0 -32 -3 q-46 -9 -51 -24q-41 -128 -73 -183q-54 -92 -122 -92q-14 0 -29 4q-5 1 -14 1q14 11 24 22q69 81 69 160q0 89 -87 177q-117 117 -338 197l-8 3q3 26 3 49q0 103 -63 131q-17 7 -37 8q-17 0 -36 -6q-39 -11 -69 -39q-32 -29 -36 -61zM23 703q-1 3 0 7q0 10 7 17q5 4 9.5 4.5 t9.5 -4.5q11 -10 13 -41v-23q-15 8 -17 10q-20 12 -22 30z" />
<glyph unicode="t" horiz-adv-x="384" d="M-59 764q57 -10 109 -10q74 0 136 21q149 42 230 192q1 5 -50 7q-56 -14 -61 -32q-76 -85 -172 -115q-46 -14 -114 -20q-37 0 -58 -1q-23 -21 -20 -42zM0 358q-15 -86 -15 -156q0 -94 27 -158q19 -44 81 -44q38 0 91 16q127 39 201 135q108 140 108 228q0 3 -14 3t-34 -3 q-52 -10 -58 -27q-43 -129 -101 -220q-59 -93 -107 -93q-31 0 -58 38q-33 46 -33 130q0 35 6 76q6 45 22 115q19 85 21 98q47 250 143 684q0 1 -4 1q-11 0 -48 -6q-52 -9 -57 -28q-50 -228 -100 -473q-6 -30 -36 -150q-24 -102 -35 -166z" />
<glyph unicode="u" d="M-19 127q5 -86 54 -114q22 -13 56 -13q26 0 59 8q42 10 113 41q44 19 82 61q8 -73 51 -97q23 -13 57 -13q26 0 59 8q41 10 112 41q78 34 131 130q32 57 69 176q2 3 -13 4q-13 0 -32 -4q-49 -8 -54 -24q-43 -136 -94 -215q-30 -45 -81 -64q-18 -6 -33 -6q-36 0 -56 37 q-12 23 -15 102v29q0 118 28 279q8 46 30 153q19 98 28 151q0 1 -7 1h-8q-17 -1 -34 -5q-50 -9 -52 -26q-65 -388 -68 -409l-2 -4q-39 -145 -96 -238q-29 -46 -81 -66q-18 -7 -33 -7q-35 0 -51 40q-14 34 -13 103q0 76 16 193q9 62 33 205q24 141 34 213q1 1 -15 0t-33 -4 q-50 -10 -53 -27q-71 -433 -79 -503q-9 -84 -9 -123v-13z" />
<glyph unicode="v" horiz-adv-x="796" d="M-20 275q0 -3 13 -3q14 0 32 3q48 9 53 24q17 54 32 114q65 -257 217 -408q5 -5 16 -5t28 5q24 7 43 19q38 21 77 134q15 -14 30 -23q48 -28 97 -28q69 0 139 55q100 80 139 206v1q0 3 -12 3q-14 0 -33 -3q-48 -9 -52 -24q-21 -66 -63 -135q-32 -53 -74 -52q-18 0 -37 9 q-55 26 -93 100q62 160 102 297q24 81 24 136q0 30 -7 52q-16 50 -66 50q-34 0 -83 -22q-57 -26 -90 -92q-30 -61 -35 -146q-2 -24 -2 -48q0 -144 63 -263q-29 -97 -53 -149q-211 253 -217 693q0 3 -16 2q-15 -1 -33 -5q-50 -12 -51 -28zM491 603q4 62 40 135q14 27 12 27 q2 0 18 -35q11 -24 11 -59q0 -42 -16 -99q-14 -52 -62 -172q-6 49 -7 109q1 44 4 94z" />
<glyph unicode="w" horiz-adv-x="1107" d="M-20 284q0 -4 14 -4t33 4q49 9 54 25q8 26 24 86q45 -235 154 -389q4 -6 16 -6q13 0 36 7q42 14 49 27q75 136 108 330q58 -187 155 -358q3 -6 16 -6t36 7q43 14 50 27q36 67 67 131q43 -42 99 -43h5q230 0 314 258q0 3 -13 4q-14 0 -33 -4q-50 -9 -55 -25 q-37 -114 -94 -160q-27 -22 -55 -22l-95 67q-10 14 -20 37q93 207 124 378q5 25 5 46q0 25 -7 46q-12 35 -41 49q-16 8 -34 8q-14 0 -30 -5q-38 -11 -75 -45q-67 -62 -82 -232q-3 -35 -3 -68q0 -128 44 -221q-28 -54 -62 -116q-162 321 -189 662q0 4 -16 3t-35 -6 q-51 -13 -51 -29v-26q0 -375 -84 -599q-130 247 -136 677q0 2 -8 2h-7q-16 -1 -35 -6q-51 -11 -52 -28zM818 519q2 95 29 185q4 14 9 45v1l1 -4q3 -8 7 -17q17 -38 17 -89q0 -97 -60 -246q-3 30 -3 125z" />
<glyph unicode="x" horiz-adv-x="673" d="M-69 4q-1 -1 -1 -2q0 -2 8 -2h5q166 14 284 138q43 -77 85 -104q36 -22 85 -22q20 0 43 4q50 9 128 43q80 34 135 133q71 131 71 182q0 3 -13 3q-15 1 -34 -3q-50 -9 -55 -25q-63 -196 -147 -274q-28 -27 -58 -27q-37 0 -75 42q-33 37 -79 129q-2 3 -5 10t-4 9 q20 33 38 65q44 84 128 316q26 69 44 106q12 25 34 4q8 -8 34 -45q10 -14 59 5q19 8 33 16t12 11q-32 46 -77 63q-22 8 -45 8q-20 0 -40 -6q-91 -25 -133 -126q-18 -45 -56 -147q-35 -96 -57 -147q-7 -18 -14 -33q-92 229 -94 481q0 2 -9 2h-7q-16 -1 -35 -6 q-52 -12 -53 -28q-20 -266 -92 -490q-1 -4 13 -4q15 0 34 3q50 9 55 26q19 57 34 120q18 -63 41 -120q37 -93 47 -115q-90 -150 -187 -158q-17 -1 -59 -21q-17 -9 -21 -14z" />
<glyph unicode="y" horiz-adv-x="722" d="M3 272q-2 -28 -2 -54q0 -226 145 -226q35 0 79 13q100 31 178 154q-5 -30 -6 -32q-14 -77 -27 -155q-13 -8 -29 -19q-183 -122 -253 -261q-21 -42 -21 -98q0 -22 3 -45q12 -97 79 -101h15q117 0 193 119q58 92 86 241q12 68 31 179q28 12 51 17q120 29 193 125 q103 135 103 216q0 8 -45 0q-49 -9 -54 -25q-44 -130 -82 -183q-55 -77 -160 -111q89 533 161 770q1 5 -10 5t-34 -5q-48 -9 -55 -24q-39 -87 -116 -306q-70 -196 -124 -303q-49 -98 -103 -98q-12 0 -24 5q-63 25 -79 151q-4 29 -4 61q0 93 30 214q14 55 39 138 q33 109 38 129q3 10 -46 1q-48 -9 -53 -25q-87 -310 -97 -467zM168 -367v12q0 71 55 148q53 72 140 132q-12 -78 -17 -110q-18 -131 -67 -239q-25 -56 -50 -56q-12 0 -24 12q-32 32 -37 101z" />
<glyph unicode="z" horiz-adv-x="679" d="M-29 241q0 -8 45 1q49 9 56 24q20 45 55 178q39 147 60 202q37 99 77 112q6 2 12 2q45 0 99 -96q35 -62 35 -146q0 -19 -2 -40q-10 -102 -62 -206q-51 -103 -127 -175q-80 -77 -163 -95q-23 -6 -49 -22q-27 -17 16 -12q22 3 43 3q104 0 163 -79q-233 -165 -233 -358 q0 -11 1 -22q7 -108 95 -109h2q66 0 148 54q90 60 127 210q14 57 14 106q0 84 -41 145q51 31 154 67q113 40 181 133q51 70 99 211v1q0 8 -47 0q-51 -9 -56 -26q-47 -138 -79 -188q-59 -89 -163 -115q-37 -8 -113 -53q-10 10 -8 8q-68 59 -150 59l4 1q281 122 333 507 q4 29 4 55q0 111 -69 173q-52 48 -123 48q-47 0 -102 -21q-67 -25 -104 -74q-31 -42 -51 -115q-5 -21 -32 -155zM102 -456q-7 23 -7 46q0 116 158 260q22 -49 26 -109v-6q0 -70 -65 -192q-31 -59 -58 -65q-3 -1 -6 -1q-29 0 -48 67z" />
<glyph unicode="&#x2000;" horiz-adv-x="898" />
<glyph unicode="&#x2001;" horiz-adv-x="1797" />
<glyph unicode="&#x2002;" horiz-adv-x="898" />
<glyph unicode="&#x2003;" horiz-adv-x="1797" />
<glyph unicode="&#x2004;" horiz-adv-x="599" />
<glyph unicode="&#x2005;" horiz-adv-x="449" />
<glyph unicode="&#x2006;" horiz-adv-x="299" />
<glyph unicode="&#x2007;" horiz-adv-x="299" />
<glyph unicode="&#x2008;" horiz-adv-x="224" />
<glyph unicode="&#x2009;" horiz-adv-x="359" />
<glyph unicode="&#x200a;" horiz-adv-x="99" />
<glyph unicode="&#x202f;" horiz-adv-x="359" />
<glyph unicode="&#x205f;" horiz-adv-x="449" />
<glyph unicode="&#x25fc;" horiz-adv-x="810" d="M0 0v810h810v-810h-810z" />
</font>
</defs>
</svg>
